<?xml version="1.0" encoding="UTF-8" standalone="no"?>
<!-- Created with Inkscape (http://www.inkscape.org/) -->

<svg
   xmlns:dc="http://purl.org/dc/elements/1.1/"
   xmlns:cc="http://creativecommons.org/ns#"
   xmlns:rdf="http://www.w3.org/1999/02/22-rdf-syntax-ns#"
   xmlns:svg="http://www.w3.org/2000/svg"
   xmlns="http://www.w3.org/2000/svg"
   xmlns:sodipodi="http://sodipodi.sourceforge.net/DTD/sodipodi-0.dtd"
   xmlns:inkscape="http://www.inkscape.org/namespaces/inkscape"
   width="597.16425"
   height="279.50177"
   id="svg2"
   version="1.1"
   inkscape:version="0.48.3.1 r9886"
   sodipodi:docname="drawing.svg">
  <defs
     id="defs4">
    <clipPath
       id="clipPath4017"
       clipPathUnits="userSpaceOnUse">
      <path
         id="path4019"
         d="M 0,288 384,288 384,0 0,0 0,288 z"
         inkscape:connector-curvature="0" />
    </clipPath>
    <clipPath
       id="clipPath4001"
       clipPathUnits="userSpaceOnUse">
      <path
         id="path4003"
         d="M 0,288 384,288 384,0 0,0 0,288 z"
         inkscape:connector-curvature="0" />
    </clipPath>
    <clipPath
       id="clipPath3949"
       clipPathUnits="userSpaceOnUse">
      <path
         id="path3951"
         d="M 0,288 384,288 384,0 0,0 0,288 z"
         inkscape:connector-curvature="0" />
    </clipPath>
    <clipPath
       id="clipPath3885"
       clipPathUnits="userSpaceOnUse">
      <path
         id="path3887"
         d="M 0,288 384,288 384,0 0,0 0,288 z"
         inkscape:connector-curvature="0" />
    </clipPath>
    <clipPath
       id="clipPath3869"
       clipPathUnits="userSpaceOnUse">
      <path
         id="path3871"
         d="M 0,288 384,288 384,0 0,0 0,288 z"
         inkscape:connector-curvature="0" />
    </clipPath>
    <clipPath
       id="clipPath3817"
       clipPathUnits="userSpaceOnUse">
      <path
         id="path3819"
         d="M 0,288 384,288 384,0 0,0 0,288 z"
         inkscape:connector-curvature="0" />
    </clipPath>
    <clipPath
       id="clipPath3733"
       clipPathUnits="userSpaceOnUse">
      <path
         id="path3735"
         d="M 0,288 384,288 384,0 0,0 0,288 z"
         inkscape:connector-curvature="0" />
    </clipPath>
    <clipPath
       id="clipPath3717"
       clipPathUnits="userSpaceOnUse">
      <path
         id="path3719"
         d="M 0,288 384,288 384,0 0,0 0,288 z"
         inkscape:connector-curvature="0" />
    </clipPath>
    <clipPath
       id="clipPath3665"
       clipPathUnits="userSpaceOnUse">
      <path
         id="path3667"
         d="M 0,288 384,288 384,0 0,0 0,288 z"
         inkscape:connector-curvature="0" />
    </clipPath>
    <clipPath
       id="clipPath3609"
       clipPathUnits="userSpaceOnUse">
      <path
         id="path3611"
         d="M 0,288 384,288 384,0 0,0 0,288 z"
         inkscape:connector-curvature="0" />
    </clipPath>
    <clipPath
       id="clipPath3593"
       clipPathUnits="userSpaceOnUse">
      <path
         id="path3595"
         d="M 0,288 384,288 384,0 0,0 0,288 z"
         inkscape:connector-curvature="0" />
    </clipPath>
    <clipPath
       id="clipPath3541"
       clipPathUnits="userSpaceOnUse">
      <path
         id="path3543"
         d="M 0,288 384,288 384,0 0,0 0,288 z"
         inkscape:connector-curvature="0" />
    </clipPath>
    <clipPath
       id="clipPath3485"
       clipPathUnits="userSpaceOnUse">
      <path
         id="path3487"
         d="M 0,288 384,288 384,0 0,0 0,288 z"
         inkscape:connector-curvature="0" />
    </clipPath>
    <clipPath
       id="clipPath3469"
       clipPathUnits="userSpaceOnUse">
      <path
         id="path3471"
         d="M 0,288 384,288 384,0 0,0 0,288 z"
         inkscape:connector-curvature="0" />
    </clipPath>
    <clipPath
       id="clipPath3417"
       clipPathUnits="userSpaceOnUse">
      <path
         id="path3419"
         d="M 0,288 384,288 384,0 0,0 0,288 z"
         inkscape:connector-curvature="0" />
    </clipPath>
    <clipPath
       id="clipPath3361"
       clipPathUnits="userSpaceOnUse">
      <path
         id="path3363"
         d="M 0,288 384,288 384,0 0,0 0,288 z"
         inkscape:connector-curvature="0" />
    </clipPath>
    <clipPath
       id="clipPath3345"
       clipPathUnits="userSpaceOnUse">
      <path
         id="path3347"
         d="M 0,288 384,288 384,0 0,0 0,288 z"
         inkscape:connector-curvature="0" />
    </clipPath>
    <clipPath
       id="clipPath3293"
       clipPathUnits="userSpaceOnUse">
      <path
         id="path3295"
         d="M 0,288 384,288 384,0 0,0 0,288 z"
         inkscape:connector-curvature="0" />
    </clipPath>
    <clipPath
       id="clipPath3237"
       clipPathUnits="userSpaceOnUse">
      <path
         id="path3239"
         d="M 0,288 384,288 384,0 0,0 0,288 z"
         inkscape:connector-curvature="0" />
    </clipPath>
    <clipPath
       id="clipPath3221"
       clipPathUnits="userSpaceOnUse">
      <path
         id="path3223"
         d="M 0,288 384,288 384,0 0,0 0,288 z"
         inkscape:connector-curvature="0" />
    </clipPath>
    <clipPath
       id="clipPath3169"
       clipPathUnits="userSpaceOnUse">
      <path
         id="path3171"
         d="M 0,288 384,288 384,0 0,0 0,288 z"
         inkscape:connector-curvature="0" />
    </clipPath>
    <clipPath
       id="clipPath3113"
       clipPathUnits="userSpaceOnUse">
      <path
         id="path3115"
         d="M 0,288 384,288 384,0 0,0 0,288 z"
         inkscape:connector-curvature="0" />
    </clipPath>
    <clipPath
       id="clipPath3097"
       clipPathUnits="userSpaceOnUse">
      <path
         id="path3099"
         d="M 0,288 384,288 384,0 0,0 0,288 z"
         inkscape:connector-curvature="0" />
    </clipPath>
  </defs>
  <sodipodi:namedview
     id="base"
     pagecolor="#ffffff"
     bordercolor="#666666"
     borderopacity="1.0"
     inkscape:pageopacity="0.0"
     inkscape:pageshadow="2"
     inkscape:zoom="1.4"
     inkscape:cx="397.575"
     inkscape:cy="141.89553"
     inkscape:document-units="px"
     inkscape:current-layer="layer1"
     showgrid="false"
     fit-margin-top="5"
     fit-margin-left="5"
     fit-margin-right="5"
     fit-margin-bottom="5"
     showborder="true"
     borderlayer="false"
     inkscape:showpageshadow="true"
     inkscape:window-width="1366"
     inkscape:window-height="748"
     inkscape:window-x="-2"
     inkscape:window-y="-3"
     inkscape:window-maximized="1" />
  <metadata
     id="metadata7">
    <rdf:RDF>
      <cc:Work
         rdf:about="">
        <dc:format>image/svg+xml</dc:format>
        <dc:type
           rdf:resource="http://purl.org/dc/dcmitype/StillImage" />
        <dc:title></dc:title>
      </cc:Work>
    </rdf:RDF>
  </metadata>
  <g
     inkscape:label="Layer 1"
     inkscape:groupmode="layer"
     id="layer1"
     transform="translate(-84.901603,-347.74496)">
    <text
       id="text3105"
       x="90.555466"
       y="360.04977"
       style="font-size:31.38516998px">
      <tspan
         style="font-size:10.46172333px;font-variant:normal;font-weight:bold;font-stretch:normal;writing-mode:lr-tb;fill:#231f20;fill-opacity:1;fill-rule:nonzero;stroke:none;font-family:Arial;-inkscape-font-specification:Arial-BoldMT"
         x="90.555466 96.372185"
         y="360.04977"
         sodipodi:role="line"
         id="tspan3107">#1</tspan>
    </text>
    <g
       id="g3117"
       transform="matrix(2.6154309,0,0,-2.6154309,174.24925,433.28185)">
      <path
         inkscape:connector-curvature="0"
         d="m 0,0 -4,8 4,8 -8,8 -8,-8 -8,8 -8,-8 0,-16 8,-8 12,0 12,8 z"
         style="fill:none;stroke:#231f20;stroke-width:0.5;stroke-linecap:butt;stroke-linejoin:miter;stroke-miterlimit:10;stroke-opacity:1;stroke-dasharray:none"
         id="path3119" />
    </g>
    <text
       id="text3229"
       x="257.94305"
       y="360.04977"
       style="font-size:31.38516998px">
      <tspan
         style="font-size:10.46172333px;font-variant:normal;font-weight:bold;font-stretch:normal;writing-mode:lr-tb;fill:#231f20;fill-opacity:1;fill-rule:nonzero;stroke:none;font-family:Arial;-inkscape-font-specification:Arial-BoldMT"
         x="257.94305 263.75977"
         y="360.04977"
         sodipodi:role="line"
         id="tspan3231">#2</tspan>
    </text>
    <g
       id="g3241"
       transform="matrix(2.6154309,0,0,-2.6154309,257.94304,391.43495)">
      <path
         inkscape:connector-curvature="0"
         d="m 0,0 8,8 8,-4 8,4 8,-8 -8,-4 8,-8 -8,-12 -12,4 -4,-4 -8,8 4,8 -4,8 z"
         style="fill:none;stroke:#231f20;stroke-width:0.5;stroke-linecap:butt;stroke-linejoin:miter;stroke-miterlimit:10;stroke-opacity:1;stroke-dasharray:none"
         id="path3243" />
    </g>
    <text
       id="text3353"
       x="425.33063"
       y="360.04977"
       style="font-size:31.38516998px">
      <tspan
         style="font-size:10.46172333px;font-variant:normal;font-weight:bold;font-stretch:normal;writing-mode:lr-tb;fill:#231f20;fill-opacity:1;fill-rule:nonzero;stroke:none;font-family:Arial;-inkscape-font-specification:Arial-BoldMT"
         x="425.33063 431.14734"
         y="360.04977"
         sodipodi:role="line"
         id="tspan3355">#3</tspan>
    </text>
    <g
       id="g3365"
       transform="matrix(2.6154309,0,0,-2.6154309,488.10096,370.51151)">
      <path
         inkscape:connector-curvature="0"
         d="m 0,0 -12,0 -12,-12 8,-4 -8,-4 8,-12 8,12 0,-12 8,0 8,12 0,8 -8,12 z"
         style="fill:none;stroke:#231f20;stroke-width:0.5;stroke-linecap:butt;stroke-linejoin:miter;stroke-miterlimit:10;stroke-opacity:1;stroke-dasharray:none"
         id="path3367" />
    </g>
    <text
       id="text3477"
       x="592.7182"
       y="360.04977"
       style="font-size:31.38516998px">
      <tspan
         style="font-size:10.46172333px;font-variant:normal;font-weight:bold;font-stretch:normal;writing-mode:lr-tb;fill:#231f20;fill-opacity:1;fill-rule:nonzero;stroke:none;font-family:Arial;-inkscape-font-specification:Arial-BoldMT"
         x="592.7182 598.53491"
         y="360.04977"
         sodipodi:role="line"
         id="tspan3479">#4</tspan>
    </text>
    <g
       id="g3489"
       transform="matrix(2.6154309,0,0,-2.6154309,613.64165,370.51151)">
      <path
         inkscape:connector-curvature="0"
         d="m 0,0 12,0 12,-8 0,-4 -12,-4 12,-8 -8,-8 -4,4 -12,-4 -8,12 0,12 12,0 -4,8 z"
         style="fill:none;stroke:#231f20;stroke-width:0.5;stroke-linecap:butt;stroke-linejoin:miter;stroke-miterlimit:10;stroke-opacity:1;stroke-dasharray:none"
         id="path3491" />
    </g>
    <text
       id="text3601"
       x="90.555466"
       y="527.43738"
       style="font-size:31.38516998px">
      <tspan
         style="font-size:10.46172333px;font-variant:normal;font-weight:bold;font-stretch:normal;writing-mode:lr-tb;fill:#231f20;fill-opacity:1;fill-rule:nonzero;stroke:none;font-family:Arial;-inkscape-font-specification:Arial-BoldMT"
         x="90.555466 96.372185 103.35015 110.90352 113.81187"
         y="527.43738"
         sodipodi:role="line"
         id="tspan3603">#SHIP</tspan>
    </text>
    <g
       id="g3613"
       transform="matrix(2.6154309,0,0,-2.6154309,132.40236,537.89908)">
      <path
         inkscape:connector-curvature="0"
         d="m 0,0 -12,-32 8,8 8,0 8,-8 L 0,0 z"
         style="fill:none;stroke:#231f20;stroke-width:0.5;stroke-linecap:butt;stroke-linejoin:miter;stroke-miterlimit:10;stroke-opacity:1;stroke-dasharray:none"
         id="path3615" />
    </g>
    <text
       id="text3725"
       x="425.33063"
       y="527.43738"
       style="font-size:31.38516998px">
      <tspan
         style="font-size:10.46172333px;font-variant:normal;font-weight:bold;font-stretch:normal;writing-mode:lr-tb;fill:#231f20;fill-opacity:1;fill-rule:nonzero;stroke:none;font-family:Arial;-inkscape-font-specification:Arial-BoldMT"
         x="425.33063 431.14734 438.12531 445.10327 452.08124 458.47336 466.61258 473.59055 476.4989 484.63812"
         y="527.43738"
         sodipodi:role="line"
         id="tspan3727">#EXPLOSION</tspan>
    </text>
    <g
       id="g3737"
       transform="matrix(2.6154309,0,0,-2.6154309,467.17752,569.28425)">
      <path
         inkscape:connector-curvature="0"
         d="M 0,0 0,8"
         style="fill:none;stroke:#231f20;stroke-width:0.5;stroke-linecap:butt;stroke-linejoin:miter;stroke-miterlimit:10;stroke-opacity:1;stroke-dasharray:none"
         id="path3739" />
    </g>
    <g
       id="g3741"
       transform="matrix(2.6154309,0,0,-2.6154309,477.63924,579.74598)">
      <path
         inkscape:connector-curvature="0"
         d="M 0,0 8,0"
         style="fill:none;stroke:#231f20;stroke-width:0.5;stroke-linecap:butt;stroke-linejoin:miter;stroke-miterlimit:10;stroke-opacity:1;stroke-dasharray:none"
         id="path3743" />
    </g>
    <g
       id="g3745"
       transform="matrix(2.6154309,0,0,-2.6154309,467.17752,590.2077)">
      <path
         inkscape:connector-curvature="0"
         d="M 0,0 0,-8"
         style="fill:none;stroke:#231f20;stroke-width:0.5;stroke-linecap:butt;stroke-linejoin:miter;stroke-miterlimit:10;stroke-opacity:1;stroke-dasharray:none"
         id="path3747" />
    </g>
    <g
       id="g3749"
       transform="matrix(2.6154309,0,0,-2.6154309,456.71579,579.74598)">
      <path
         inkscape:connector-curvature="0"
         d="M 0,0 -8,0"
         style="fill:none;stroke:#231f20;stroke-width:0.5;stroke-linecap:butt;stroke-linejoin:miter;stroke-miterlimit:10;stroke-opacity:1;stroke-dasharray:none"
         id="path3751" />
    </g>
    <g
       id="g3753"
       transform="matrix(2.6154309,0,0,-2.6154309,477.63924,569.28425)">
      <path
         inkscape:connector-curvature="0"
         d="M 0,0 4,4"
         style="fill:none;stroke:#231f20;stroke-width:0.5;stroke-linecap:butt;stroke-linejoin:miter;stroke-miterlimit:10;stroke-opacity:1;stroke-dasharray:none"
         id="path3755" />
    </g>
    <g
       id="g3757"
       transform="matrix(2.6154309,0,0,-2.6154309,456.71579,569.28425)">
      <path
         inkscape:connector-curvature="0"
         d="M 0,0 -4,4"
         style="fill:none;stroke:#231f20;stroke-width:0.5;stroke-linecap:butt;stroke-linejoin:miter;stroke-miterlimit:10;stroke-opacity:1;stroke-dasharray:none"
         id="path3759" />
    </g>
    <g
       id="g3761"
       transform="matrix(2.6154309,0,0,-2.6154309,456.71579,590.2077)">
      <path
         inkscape:connector-curvature="0"
         d="M 0,0 -4,-4"
         style="fill:none;stroke:#231f20;stroke-width:0.5;stroke-linecap:butt;stroke-linejoin:miter;stroke-miterlimit:10;stroke-opacity:1;stroke-dasharray:none"
         id="path3763" />
    </g>
    <g
       id="g3765"
       transform="matrix(2.6154309,0,0,-2.6154309,477.63924,590.2077)">
      <path
         inkscape:connector-curvature="0"
         d="M 0,0 4,-4"
         style="fill:none;stroke:#231f20;stroke-width:0.5;stroke-linecap:butt;stroke-linejoin:miter;stroke-miterlimit:10;stroke-opacity:1;stroke-dasharray:none"
         id="path3767" />
    </g>
    <text
       id="text3877"
       x="592.7182"
       y="527.43738"
       style="font-size:31.38516998px">
      <tspan
         style="font-size:10.46172333px;font-variant:normal;font-weight:bold;font-stretch:normal;writing-mode:lr-tb;fill:#231f20;fill-opacity:1;fill-rule:nonzero;stroke:none;font-family:Arial;-inkscape-font-specification:Arial-BoldMT"
         x="592.7182 598.53491 605.51288 613.06622 620.04425 628.75885"
         y="527.43738"
         sodipodi:role="line"
         id="tspan3879">#ENEMY</tspan>
    </text>
    <g
       id="g3889"
       transform="matrix(2.6154309,0,0,-2.6154309,592.7182,579.74598)">
      <path
         inkscape:connector-curvature="0"
         d="M 0,0 8,4 24,4 32,0 24,-4 8,-4 0,0 z"
         style="fill:none;stroke:#231f20;stroke-width:0.5;stroke-linecap:butt;stroke-linejoin:miter;stroke-miterlimit:10;stroke-opacity:1;stroke-dasharray:none"
         id="path3891" />
    </g>
    <g
       id="g3893"
       transform="matrix(2.6154309,0,0,-2.6154309,613.64165,569.28425)">
      <path
         inkscape:connector-curvature="0"
         d="m 0,0 c 0,4.418 3.582,8 8,8 4.418,0 8,-3.582 8,-8"
         style="fill:none;stroke:#231f20;stroke-width:0.5;stroke-linecap:butt;stroke-linejoin:miter;stroke-miterlimit:10;stroke-opacity:1;stroke-dasharray:none"
         id="path3895" />
    </g>
    <g
       id="g3897"
       transform="matrix(2.6154309,0,0,-2.6154309,592.7182,579.74598)">
      <path
         inkscape:connector-curvature="0"
         d="M 0,0 32,0"
         style="fill:none;stroke:#231f20;stroke-width:0.5;stroke-linecap:butt;stroke-linejoin:miter;stroke-miterlimit:10;stroke-opacity:1;stroke-dasharray:none"
         id="path3899" />
    </g>
    <text
       id="text4009"
       x="257.94305"
       y="527.43738"
       style="font-size:31.38516998px">
      <tspan
         style="font-size:10.46172333px;font-variant:normal;font-weight:bold;font-stretch:normal;writing-mode:lr-tb;fill:#231f20;fill-opacity:1;fill-rule:nonzero;stroke:none;font-family:Arial;-inkscape-font-specification:Arial-BoldMT"
         x="257.94305 263.75977 270.73773 278.29111 286.43033"
         y="527.43738"
         sodipodi:role="line"
         id="tspan4011">#SHOT</tspan>
    </text>
    <g
       id="g4013"
       transform="matrix(2.6154309,0,0,-2.6154309,-129.14073,788.98045)">
      <g
         id="g4015"
         clip-path="url(#clipPath4017)">
        <g
           id="g4021"
           transform="translate(164,76)">
          <path
             inkscape:connector-curvature="0"
             d="M 0,0 0,8"
             style="fill:none;stroke:#231f20;stroke-width:0.5;stroke-linecap:butt;stroke-linejoin:miter;stroke-miterlimit:10;stroke-opacity:1;stroke-dasharray:none"
             id="path4023" />
        </g>
      </g>
    </g>
  </g>
</svg>
