<?xml version="1.0" encoding="UTF-8" standalone="no"?>
<!-- Created with Inkscape (http://www.inkscape.org/) -->

<svg
   xmlns:dc="http://purl.org/dc/elements/1.1/"
   xmlns:cc="http://creativecommons.org/ns#"
   xmlns:rdf="http://www.w3.org/1999/02/22-rdf-syntax-ns#"
   xmlns:svg="http://www.w3.org/2000/svg"
   xmlns="http://www.w3.org/2000/svg"
   xmlns:sodipodi="http://sodipodi.sourceforge.net/DTD/sodipodi-0.dtd"
   xmlns:inkscape="http://www.inkscape.org/namespaces/inkscape"
   width="88.636147"
   height="45.154606"
   id="svg2"
   version="1.1"
   inkscape:version="0.48.3.1 r9886"
   sodipodi:docname="explosion.svg">
  <defs
     id="defs4">
    <clipPath
       id="clipPath4017"
       clipPathUnits="userSpaceOnUse">
      <path
         id="path4019"
         d="M 0,288 384,288 384,0 0,0 0,288 z"
         inkscape:connector-curvature="0" />
    </clipPath>
    <clipPath
       id="clipPath4001"
       clipPathUnits="userSpaceOnUse">
      <path
         id="path4003"
         d="M 0,288 384,288 384,0 0,0 0,288 z"
         inkscape:connector-curvature="0" />
    </clipPath>
    <clipPath
       id="clipPath3949"
       clipPathUnits="userSpaceOnUse">
      <path
         id="path3951"
         d="M 0,288 384,288 384,0 0,0 0,288 z"
         inkscape:connector-curvature="0" />
    </clipPath>
    <clipPath
       id="clipPath3885"
       clipPathUnits="userSpaceOnUse">
      <path
         id="path3887"
         d="M 0,288 384,288 384,0 0,0 0,288 z"
         inkscape:connector-curvature="0" />
    </clipPath>
    <clipPath
       id="clipPath3869"
       clipPathUnits="userSpaceOnUse">
      <path
         id="path3871"
         d="M 0,288 384,288 384,0 0,0 0,288 z"
         inkscape:connector-curvature="0" />
    </clipPath>
    <clipPath
       id="clipPath3817"
       clipPathUnits="userSpaceOnUse">
      <path
         id="path3819"
         d="M 0,288 384,288 384,0 0,0 0,288 z"
         inkscape:connector-curvature="0" />
    </clipPath>
    <clipPath
       id="clipPath3733"
       clipPathUnits="userSpaceOnUse">
      <path
         id="path3735"
         d="M 0,288 384,288 384,0 0,0 0,288 z"
         inkscape:connector-curvature="0" />
    </clipPath>
    <clipPath
       id="clipPath3717"
       clipPathUnits="userSpaceOnUse">
      <path
         id="path3719"
         d="M 0,288 384,288 384,0 0,0 0,288 z"
         inkscape:connector-curvature="0" />
    </clipPath>
    <clipPath
       id="clipPath3665"
       clipPathUnits="userSpaceOnUse">
      <path
         id="path3667"
         d="M 0,288 384,288 384,0 0,0 0,288 z"
         inkscape:connector-curvature="0" />
    </clipPath>
    <clipPath
       id="clipPath3609"
       clipPathUnits="userSpaceOnUse">
      <path
         id="path3611"
         d="M 0,288 384,288 384,0 0,0 0,288 z"
         inkscape:connector-curvature="0" />
    </clipPath>
    <clipPath
       id="clipPath3593"
       clipPathUnits="userSpaceOnUse">
      <path
         id="path3595"
         d="M 0,288 384,288 384,0 0,0 0,288 z"
         inkscape:connector-curvature="0" />
    </clipPath>
    <clipPath
       id="clipPath3541"
       clipPathUnits="userSpaceOnUse">
      <path
         id="path3543"
         d="M 0,288 384,288 384,0 0,0 0,288 z"
         inkscape:connector-curvature="0" />
    </clipPath>
    <clipPath
       id="clipPath3485"
       clipPathUnits="userSpaceOnUse">
      <path
         id="path3487"
         d="M 0,288 384,288 384,0 0,0 0,288 z"
         inkscape:connector-curvature="0" />
    </clipPath>
    <clipPath
       id="clipPath3469"
       clipPathUnits="userSpaceOnUse">
      <path
         id="path3471"
         d="M 0,288 384,288 384,0 0,0 0,288 z"
         inkscape:connector-curvature="0" />
    </clipPath>
    <clipPath
       id="clipPath3417"
       clipPathUnits="userSpaceOnUse">
      <path
         id="path3419"
         d="M 0,288 384,288 384,0 0,0 0,288 z"
         inkscape:connector-curvature="0" />
    </clipPath>
    <clipPath
       id="clipPath3361"
       clipPathUnits="userSpaceOnUse">
      <path
         id="path3363"
         d="M 0,288 384,288 384,0 0,0 0,288 z"
         inkscape:connector-curvature="0" />
    </clipPath>
    <clipPath
       id="clipPath3345"
       clipPathUnits="userSpaceOnUse">
      <path
         id="path3347"
         d="M 0,288 384,288 384,0 0,0 0,288 z"
         inkscape:connector-curvature="0" />
    </clipPath>
    <clipPath
       id="clipPath3293"
       clipPathUnits="userSpaceOnUse">
      <path
         id="path3295"
         d="M 0,288 384,288 384,0 0,0 0,288 z"
         inkscape:connector-curvature="0" />
    </clipPath>
    <clipPath
       id="clipPath3237"
       clipPathUnits="userSpaceOnUse">
      <path
         id="path3239"
         d="M 0,288 384,288 384,0 0,0 0,288 z"
         inkscape:connector-curvature="0" />
    </clipPath>
    <clipPath
       id="clipPath3221"
       clipPathUnits="userSpaceOnUse">
      <path
         id="path3223"
         d="M 0,288 384,288 384,0 0,0 0,288 z"
         inkscape:connector-curvature="0" />
    </clipPath>
    <clipPath
       id="clipPath3169"
       clipPathUnits="userSpaceOnUse">
      <path
         id="path3171"
         d="M 0,288 384,288 384,0 0,0 0,288 z"
         inkscape:connector-curvature="0" />
    </clipPath>
    <clipPath
       id="clipPath3113"
       clipPathUnits="userSpaceOnUse">
      <path
         id="path3115"
         d="M 0,288 384,288 384,0 0,0 0,288 z"
         inkscape:connector-curvature="0" />
    </clipPath>
    <clipPath
       id="clipPath3097"
       clipPathUnits="userSpaceOnUse">
      <path
         id="path3099"
         d="M 0,288 384,288 384,0 0,0 0,288 z"
         inkscape:connector-curvature="0" />
    </clipPath>
  </defs>
  <sodipodi:namedview
     id="base"
     pagecolor="#ffffff"
     bordercolor="#666666"
     borderopacity="1.0"
     inkscape:pageopacity="0.0"
     inkscape:pageshadow="2"
     inkscape:zoom="3.959798"
     inkscape:cx="62.21016"
     inkscape:cy="-7.6112613"
     inkscape:document-units="px"
     inkscape:current-layer="layer1"
     showgrid="false"
     fit-margin-top="1"
     fit-margin-left="1"
     fit-margin-right="1"
     fit-margin-bottom="1"
     showborder="true"
     borderlayer="false"
     inkscape:showpageshadow="true"
     inkscape:window-width="1366"
     inkscape:window-height="748"
     inkscape:window-x="-2"
     inkscape:window-y="-3"
     inkscape:window-maximized="1" />
  <metadata
     id="metadata7">
    <rdf:RDF>
      <cc:Work
         rdf:about="">
        <dc:format>image/svg+xml</dc:format>
        <dc:type
           rdf:resource="http://purl.org/dc/dcmitype/StillImage" />
        <dc:title></dc:title>
      </cc:Work>
    </rdf:RDF>
  </metadata>
  <g
     inkscape:label="Layer 1"
     inkscape:groupmode="layer"
     id="layer1"
     transform="translate(-394.13692,-432.9435)">
    <g
       id="g3889"
       transform="matrix(2.6154309,0,0,-2.6154309,396.6081,465.98252)">
      <path
         inkscape:connector-curvature="0"
         d="M 0,0 8,4 24,4 32,0 24,-4 8,-4 0,0 z"
         style="fill:none;stroke:#231f20;stroke-width:0.5;stroke-linecap:butt;stroke-linejoin:miter;stroke-miterlimit:10;stroke-opacity:1;stroke-dasharray:none"
         id="path3891" />
    </g>
    <g
       id="g3893"
       transform="matrix(2.6154309,0,0,-2.6154309,417.53155,455.5208)">
      <path
         inkscape:connector-curvature="0"
         d="m 0,0 c 0,4.418 3.582,8 8,8 4.418,0 8,-3.582 8,-8"
         style="fill:none;stroke:#231f20;stroke-width:0.5;stroke-linecap:butt;stroke-linejoin:miter;stroke-miterlimit:10;stroke-opacity:1;stroke-dasharray:none"
         id="path3895" />
    </g>
    <g
       id="g3897"
       transform="matrix(2.6154309,0,0,-2.6154309,396.6081,465.98252)">
      <path
         inkscape:connector-curvature="0"
         d="M 0,0 32,0"
         style="fill:none;stroke:#231f20;stroke-width:0.5;stroke-linecap:butt;stroke-linejoin:miter;stroke-miterlimit:10;stroke-opacity:1;stroke-dasharray:none"
         id="path3899" />
    </g>
  </g>
</svg>
